<svg height="512" viewBox="0 0 64 64" width="512" xmlns="http://www.w3.org/2000/svg"><g id="Flat"><circle cx="32" cy="39.5" fill="#3498db" r="21.5"/><path d="m32 62a22.5 22.5 0 1 1 22.5-22.5 22.526 22.526 0 0 1 -22.5 22.5zm0-43a20.5 20.5 0 1 0 20.5 20.5 20.523 20.523 0 0 0 -20.5-20.5z" fill="#2980b9"/><path d="m32.006 52.494a12.994 12.994 0 0 1 -9.193-22.186 2 2 0 0 1 2.828 2.828 9 9 0 1 0 12.729 0 2 2 0 0 1 2.83-2.828 12.994 12.994 0 0 1 -9.192 22.186z" fill="#ffe184"/><rect fill="#ffe184" height="16" rx="2" width="4" x="30" y="24"/><path d="m28.89 14.578a1.007 1.007 0 0 0 .351-.064 7.847 7.847 0 0 1 5.518 0 1 1 0 0 0 .7-1.873 9.86 9.86 0 0 0 -6.924 0 1 1 0 0 0 .352 1.937z" fill="#ffcc5c"/><path d="m26.021 10.477a.99.99 0 0 0 .458-.112 12.006 12.006 0 0 1 11.042 0 1 1 0 1 0 .919-1.775 14 14 0 0 0 -12.88 0 1 1 0 0 0 .461 1.887z" fill="#f7931e"/><path d="m23.211 6.468a1 1 0 0 0 .518-.145 15.892 15.892 0 0 1 16.542 0 1 1 0 0 0 1.038-1.71 17.888 17.888 0 0 0 -18.618 0 1 1 0 0 0 .52 1.855z" fill="#f15a24"/></g></svg>