<svg id="color" enable-background="new 0 0 24 24" height="512" viewBox="0 0 24 24" width="512" xmlns="http://www.w3.org/2000/svg"><path d="m21 1h-18c-1.654 0-3 1.346-3 3v16c0 1.654 1.346 3 3 3h18c1.654 0 3-1.346 3-3v-16c0-1.654-1.346-3-3-3z" fill="#607d8b"/><path d="m21 21h-18c-.551 0-1-.448-1-1v-14h20v14c0 .552-.449 1-1 1z" fill="#fff"/><path d="m12 1h-9c-1.654 0-3 1.346-3 3v16c0 1.654 1.346 3 3 3h9v-2h-9c-.551 0-1-.448-1-1v-14h10z" fill="#546d79"/><path d="m12 6h-10v14c0 .552.449 1 1 1h9z" fill="#dedede"/><path d="m15.819 13.512-1.5-1.75c-.204-.237-.533-.322-.829-.215-.295.108-.49.389-.49.703v.75h-3c-.553 0-1 .448-1 1s.447 1 1 1h3v.75c0 .314.195.595.49.704l.26.046c.215 0 .424-.092.569-.262l1.5-1.75c.242-.281.242-.695 0-.976z" fill="#ffc107"/><path d="m6 15h-1c-.553 0-1-.448-1-1s.447-1 1-1h1c.553 0 1 .448 1 1s-.447 1-1 1z" fill="#ffc107"/><path d="m18 20h-6c-.553 0-1-.448-1-1s.447-1 1-1h6v-8h-6c-.553 0-1-.448-1-1s.447-1 1-1h6c1.103 0 2 .897 2 2v8c0 1.103-.897 2-2 2z" fill="#2196f3"/><path d="m16 14h-7c0 .552.447 1 1 1h3v.75c0 .314.195.595.49.704l.26.046c.215 0 .424-.092.569-.262l1.5-1.75c.121-.14.181-.314.181-.488z" fill="#dea806"/><path d="m7 14h-3c0 .552.447 1 1 1h1c.553 0 1-.448 1-1z" fill="#dea806"/><path d="m20 14h-2v4h-6c-.553 0-1 .448-1 1s.447 1 1 1h6c1.103 0 2-.897 2-2z" fill="#1d83d4"/></svg>